<svg version="1.1" xmlns="http://www.w3.org/2000/svg" viewBox="0 0 32 32">
    <path
        d="M0 12.875c0.375 0.188 0.438 0.125 0.813 0.375 0.125 0.063 0.625 0.438 0.688 0.563 0.25 0.25 0.938 1.188 1.125 1.5 1.25 2.438 0.813 2.563 3.188 4.625 5.25 4.75 15.063 1.125 15.063-7.25 0-1.375-0.563-3.25-1.063-4.188-1.375 0.125-2.875 1.313-3.313 2.438-0.375 0.875 0.875 2.875-1.313 5.313-2.688 2.938-8.563 1.438-8.563-3.563 0-2.813 2.188-4.875 5-4.875 0.5-0.938 0.688-1 1.375-1.75 0.438-0.5 1.188-1.375 1.813-1.563v-0.5c-1.188-0.125-1-0.5-3.5-0.5-3.563 0-6.5 2.375-7.938 4.938-0.875 1.5-1 2.75-2.563 3.813-0.563 0.438-0.438 0.063-0.813 0.625zM11.125 11.813c0 4.688 0.313 2.625 0.875 5.063 1.438 0 2.25-0.625 2.875-1.438 1.125-1.5 0.188-1.813 0.563-3.5 1.25-6.375 9.75-4.625 9.75 0.25v1.188c0 3.875-4.625 4.25-5.063 4.625l-0.938 1.188c-0.438 0.563-1.5 1.688-2.125 1.875v0.5c0.875 0 0.688 0.188 1.563 0.375 3.688 0.563 6.813-0.813 8.813-3.188 0.313-0.438 0.75-1.063 1-1.563 0.375-0.688 0.5-1.188 0.813-1.813 0.563-1.063 1.625-2.25 2.75-2.5-0.5-0.688-0.563-0.125-1.5-1.063-1.563-1.5-1.375-3-3.063-5-3.188-3.688-7.938-4.313-12.188-1.813-2 1.125-4.125 4.375-4.125 6.813zM10.063 22.813c1.125 1.438 4.375 2.75 5.75 5.688 0.438-0.313 0.75-1 1.25-1.5l3.125-2.813c0.563-0.438 1.125-0.813 1.563-1.375-4.063 0-4.875-0.938-5.75-1-0.375 0-2 0.625-2.625 0.75-1.188 0.188-2 0.25-3.313 0.25z"
        fill="currentColor"></path>
</svg>