<!-- Generated by IcoMoon.io -->
<svg version="1.1" xmlns="http://www.w3.org/2000/svg" viewBox="0 0 32 32">
    <path
        d="M8.75 8c5.25 1.313 9.25 1.313 14.5-0.063 2.25-1.813 2.25-4.188 3.188-7.75-3.375 0.313-5.625 0.563-8.438 3.188l-1.5 1.688c-0.125 0.125-0.313 0.438-0.5 0.625-2.5-2.875-4.688-5-10.438-5.5 0.938 3.563 0.875 5.938 3.188 7.813zM4.25 18.125h5.625v13.688h-5.625c-0.625 0-1.125-0.5-1.125-1.125v-11.375c0-0.625 0.5-1.188 1.125-1.188zM11.5 9.75h9v22.063h-9zM22.125 18.125h5.625c0.625 0 1.125 0.563 1.125 1.188v11.375c0 0.625-0.5 1.125-1.125 1.125h-5.625zM0.563 9.75h9.313v6.813h-9.313c-0.313 0-0.563-0.313-0.563-0.625v-5.625c0-0.313 0.25-0.563 0.563-0.563zM22.125 9.75h9.313c0.313 0 0.563 0.25 0.563 0.563v5.625c0 0.313-0.25 0.625-0.563 0.625h-9.313z"
        fill="currentColor"></path>
</svg>