<svg viewBox="0 0 1024 1024" version="1.1"
    xmlns="http://www.w3.org/2000/svg">
    <path
        d="M550.88 119.36v785.28c0 23.52-14.304 30.4-31.936 15.424L265.92 704.768c-8.832-7.52-25.152-13.6-36.736-13.6H179.2C133.312 691.2 96 652.832 96 605.792V418.24c0-47.136 37.248-85.344 83.264-85.344H229.12c11.456 0 27.904-6.08 36.736-13.6l253.056-215.328c17.632-14.976 31.936-8.16 31.936 15.424z m163.968 24.736a36.416 36.416 0 0 1 49.376-2.336c113.44 94.976 179.776 227.68 179.776 365.44 0 148.032-66.72 286.176-180.608 376.096-16.192 12.8-39.488 9.664-51.872-6.848a37.76 37.76 0 0 1 6.688-52.096c96-75.808 152.192-192.192 152.192-317.12 0-114.88-56.224-226.784-153.024-307.84a37.76 37.76 0 0 1-5.216-52.256zM652.48 314.88a36.416 36.416 0 0 1 49.376-2.336c60.896 50.976 96.576 122.528 96.576 197.12a257.728 257.728 0 0 1-97.408 202.816c-16.192 12.768-39.488 9.632-51.872-6.88a37.76 37.76 0 0 1 6.688-52.096 182.624 182.624 0 0 0 68.992-143.808c0-51.68-25.6-102.464-69.824-139.52a37.76 37.76 0 0 1-5.216-52.256z"
        fill="currentColor"></path>
</svg>