<svg version="1.1" xmlns="http://www.w3.org/2000/svg" viewBox="0 0 32 32">
    <path
        d="M6.563 13.063c-0.875 0.5-1.813 1.188-2.813 1.5-0.688 0.625-1.563 0.625-1.875 1.375 1 0 2.125 0 3.188 0 0.875 0 2.813-0.125 3.438 0l5.625-0.125-2.625-1.563c-1.438-1-0.688-1.125-2.75-1.188l2.438-1.5c0.438 0.313 0.813 0.75 1.188 1.125l3.188 2.75c0.563 0.688 0.188 0.625 0.188 0.688-0.375 0.375-0.688 0.688-1 1.188l0.813 6.438 0.313 2.375 0.188 2.375c0.5-2-0.125-11.188 0.375-12.25 0.438-0.188 1.75-0.188 2.25-0.188 0.125-0.063 0.125-0.125 0.438-0.188 0.125-0.063 0.25 0 0.313 0l-2.688-0.188h-0.438v-0.5l-0.25-7.625 0.063-0.313c-0.25-0.313-0.438-0.313-0.25-1.063l0.063 3.5c-0.5-0.563-0.5-1.063-0.75-1.75l0.063 0.188c-0.313 0.25-0.063 0.125-0.5 0.313l-1 0.375c-0.938 1.125 1.5 3.5 1.813 5.938-0.625-0.375-0.813-0.625-1.25-1.25-0.938-1.188-0.938-0.813-1.25-1.313-0.75-0.875-0.938-2.313-0.375-3.563 0.438-1.063 1-2.188 1.563-3.313l1.625-3.313 0.438 0.313 1.5 2.938c0.563 0.813 1.438 2.5 1.688 3.375 0.313 0.688 1.313 2.25 1.75 2.688 0.313 0.438 0.438 0.375 0.938 0.688 0.438 0.188 4.875 2.313 5.25 2.813 0.75 0.063 0.688 0.313 1.313 0.438 0.188-0.188 0.25 0.063 0.063-0.313-0.313-0.313-5.813-3.313-6.625-3.688-0.813-0.313-1.125-1.375-1.5-2.125-0.375-0.813-0.75-1.438-1.063-2.313-0.313-0.438-0.563-1.063-0.875-1.625l-2.438-4.813c-0.625 0.188-0.5 0.125-0.813 0.75l-2.313 4.625c-0.813 1.5-2.125 4.938-2.938 5.375-0.563 0.375-1.125 0.563-1.875 1-0.25 0.188-0.688 0.313-0.875 0.438-0.313 0.188-0.563 0.313-0.938 0.5zM28.75 15.25l0.375 0.375c0 0 0.063 0.063 0.125 0.063l-0.938 0.063 1.438 0.125c0 1 0.063 0.25-0.313 0.438l-0.938 0.313c-0.625 0.563-1.813 1.125-2.625 1.313l-2.125 1.063c-0.25 0.25-0.625 0.313-0.938 0.625-0.75 0.188-1.563 0.563-2.063 1.063l-2.75 5.375c-0.563 1.375-1.375 2.625-1.938 4-0.438-0.563-3.813-7.625-4.375-8.875-0.688-1.438-2.563-2.063-3.875-2.75-0.75-0.438-3.563-2.125-4.188-2.25l1-0.063c1.188-0.063 2.875 0.188 3.875-0.188-0.625-0.125-2.563 0-3.438 0-1.063 0-2.188 0-3.188 0 0.313 0.688 0.188 0.25 0.875 0.813 1.063 0.313 3.5 1.875 4.688 2.438 3 1.5 3.063 1.375 3.813 3.063l3.563 7.188c0.375 0.75 0.75 1.625 1.25 2.063 1.063-1 4.688-9.438 5.438-10.25 0.25-0.563-0.063-0.25 0.5-0.563l4-2.125c0.813-0.438 1.5-0.813 2.313-1.25l1.625-0.875c0.5-0.313 0.188 0 0.438-0.5-0.188-0.5-0.313-0.625-1.563-1 0.188 0.375 0.125 0.125-0.063 0.313zM8.5 15.938c-1 0.375-2.688 0.125-3.875 0.188 1.125 0.813 2.375 1.5 3.688 2.188 0.625 0.313 1.375 0.688 2 1 1.188 0.625 0.938 0.438 1.75 1.313 0.125-0.375 0.938-1.375 1.25-1.688 0.313-0.438 0.375-0.438 0.688-0.875 0.25-0.375 0.5-0.5 0.75-0.75 0.313-0.5 0.625-0.813 1-1.188-0.313-0.5 0.188-0.313-0.813-0.313-0.188-0.063-0.625 0-0.813 0l-5.625 0.125zM18 26.063c-0.813-0.063-0.125 0.063-0.375-0.313-0.438-0.875 0.063-2 0.5-2.875l-0.875 0.25-0.75 1.313c-0.188-2.188 0.125-4.188 0.063-6.25l-0.125-1.938c-0.5 1.063 0.125 10.25-0.375 12.25l-0.188-2.375c-0.688-0.438-0.938-1.813-1.625-2.063-0.5-1.25-1.438-2.438-2.188-3.438-0.813-0.875-0.563-0.688-1.75-1.313-0.625-0.313-1.375-0.688-2-1-1.313-0.688-2.563-1.375-3.688-2.188l-1 0.063c0.625 0.125 3.438 1.813 4.188 2.25 1.313 0.688 3.188 1.313 3.875 2.75 0.563 1.25 3.938 8.313 4.375 8.875 0.563-1.375 1.375-2.625 1.938-4zM16.563 18.188c0.438 0.438 1.938 1.813 2.438 2l0.188-0.688c-0.438-0.5-0.063-0.25-0.063-0.313 0.5 0.25 0.063 0.063 0.688 0.063-0.063-0.25-0.125-0.125 0.25-0.375 0.563-0.313 0.188-0.125 0.625-0.188 0.563-0.563 2.438-1.438 3.188-1.75s3.438-0.188 4.625-0.313l0.938-0.313c0-0.063-0.063-0.063-0.063-0.063l-0.875-0.313c-0.375 0-0.875 0-1.25 0-0.688 0-1.438 0.125-2.188 0.125-1.563 0.063-3.125 0-4.75 0h-1.625c-0.5 0-1.813 0-2.25 0.188l0.125 1.938zM2.563 17.125l4.563 2.563c1.25 0.688 2.75 1.125 3.25 2l1.125 2.375c0.188 0.438 0.375 0.813 0.625 1.25 0.563 1.063 2.938 6.75 3.938 6.75 0.938 0 2.813-4.563 3.125-5.25l2.813-5.813-0.5 0.25c-0.75 0.813-4.375 9.25-5.438 10.25-0.5-0.438-0.875-1.375-1.25-2.063l-3.563-7.188c-0.813-1.688-0.813-1.563-3.813-3.063-1.188-0.563-3.625-2.125-4.688-2.438-0.313 0.188-0.375-0.125-0.188 0.375zM13.75 8.813l1.125-2.313 0.313 1.438c0.25 0.688 0.25 1.188 0.75 1.75l-0.063-3.5c-0.188 0.75 0 0.75 0.25 1.063 0.063-1.313-0.188-2.5-0.125-3.875 0-1.125 0.125-0.938 0.313-1.063l-0.438-0.313-1.625 3.313c-0.563 1.125-1.125 2.25-1.563 3.313-0.563 1.25-0.375 2.688 0.375 3.563 0.313 0.5 0.313 0.125 1.25 1.313 0.438 0.625 0.625 0.875 1.25 1.25-0.313-2.438-2.75-4.813-1.813-5.938zM16.063 7.563l0.188 7.625 0.188-1c0.5 0.625 0.25 0 0.75-0.813 1.125-1.875 2-4.25 2.313-4.75-0.25-0.875-1.125-2.563-1.688-3.375l-0.25 0.063c0 0-0.188-0.125-0.25-0.188 0 0.063-0.125 0.313-0.125 0.375l-0.625 0.25 0.375 1.063c0.063 0.25 0.063 0.188 0 0.438 0 1.375 0 1.125-0.313 1.313-0.563-0.25-0.25-0.063-0.438-0.563-0.125-0.188 0-0.125-0.125-0.438zM20.063 12.188c-0.563 1-2.688 2.375-3.313 3.5l2.688 0.188c-0.063 0-0.188-0.063-0.313 0-0.313 0.063-0.313 0.125-0.438 0.188h1.625l1-0.313c0.625-0.063 2.625-0.125 3 0.188l-2.938-0.188 0.438-0.563c0 0 0.25-0.25 0.313-0.438 0.188-0.5-0.063-0.75-0.063-1.438 0.625 0 1.188 0.313 1.375 0.25-0.313-0.5-0.938-0.5-1.375-1.125l-1.625-0.563zM12.063 20.625c0.75 1 1.688 2.188 2.188 3.438 0.438-0.188 0.188 0 0.438-0.188 0 0 0.063 0 0.063-0.063 0.063 0 0.125-0.063 0.188-0.063 0.438 0.188 0.25-0.375 0.313 0.5 0.063-0.063 0.125-0.188 0.125-0.125l0.188-0.375-0.813-6.438c-0.25 0.25-0.5 0.375-0.75 0.75-0.313 0.438-0.375 0.438-0.688 0.875-0.313 0.313-1.125 1.313-1.25 1.688zM16.25 15.188l0.063 0.5h0.438c0.625-1.125 2.75-2.5 3.313-3.5 0.125-0.188 0.25-0.313 0.438-0.5 0.5-0.5-0.063-0.438 0.75-0.375-0.438-0.438-1.438-2-1.75-2.688-0.313 0.5-1.188 2.875-2.313 4.75-0.5 0.813-0.25 1.438-0.75 0.813l-0.125 1zM7.563 12.188l-0.188 0.25c-0.125 0.125-0.125 0.125-0.313 0.25-0.25 0.188-0.188 0.063-0.5 0.375 0.375-0.188 0.625-0.313 0.938-0.5 0.188-0.125 0.625-0.25 0.875-0.438 0.75-0.438 1.313-0.625 1.875-1 0.813-0.438 2.125-3.875 2.938-5.375l2.313-4.625c0.313-0.625 0.188-0.563 0.813-0.75l2.438 4.813c0.313 0.563 0.563 1.188 0.875 1.625-0.063-0.813-0.063-0.25 0.188-0.438-0.25-0.875-1.125-2.313-1.5-3.125-0.563-1.125-1.063-2.25-1.688-3.25h-1.063c-0.813 1.25-3.938 8.375-5.063 10.188-0.375 0.625-0.75 0.688-1.5 1.063-0.313 0.125-0.438 0.25-0.75 0.438l-0.688 0.5zM20.313 16.063c1.625 0 3.188 0.063 4.75 0 0.75 0 1.5-0.125 2.25-0.125 0.313 0 0.813 0 1.188 0l0.875 0.313c0 0 0.063 0 0.063 0.063 0.375-0.188 0.313 0.563 0.313-0.438l-1.438-0.125c-2.25 0.063-1.375 0.063-2.688-0.75-0.313-0.188-0.125-0.063-0.375-0.25l-1.813-1.188c-0.188 0.063-0.75-0.25-1.375-0.25 0 0.688 0.25 0.938 0.063 1.438-0.063 0.188-0.313 0.438-0.313 0.438l-0.438 0.563 2.938 0.188c-0.375-0.313-2.438-0.25-3-0.188l-1 0.313zM14.125 15.813c0.188 0 0.625-0.063 0.813 0 1 0.063 0.5-0.188 0.813 0.313 0-0.063 0.375 0-0.188-0.688l-3.188-2.75c-0.375-0.375-0.75-0.813-1.188-1.125l-2.438 1.5c2.063 0.063 1.313 0.188 2.75 1.188l2.625 1.563zM22.188 11.25c0.813 0.375 6.313 3.375 6.625 3.688 1.25 0.375 1.375 0.5 1.563 1-0.25 0.5 0.063 0.125-0.438 0.5l-1.625 0.875c-0.813 0.438-1.5 0.813-2.313 1.25l-4 2.125c-0.563 0.313-0.25 0-0.5 0.563l0.5-0.25c0.5 0.125 0.188 0.125 0.625-0.063l7.688-4.188c0.688-0.5 0.5-0.438 0.5-1.313-0.75-0.563-1.563-0.813-2.375-1.313l-3.625-2c-0.5-0.25-0.688-0.375-1.188-0.625-2.25-1.125-1.188-0.563-2.125-1.688-0.125 0.25-0.25-0.313-0.063 0.438 0.063 0.188 0.125 0.25 0.188 0.313 0.25 0.375 0.313 0.25 0.563 0.688zM19.188 19.5c0.375 0.25 0.25-0.438 0.375 0.563 0 0.125-0.063 0.125-0.188 0.313-0.188 0.438-0.313 0.938-0.563 1.313-0.188 0.313-0.25 0.438-0.438 0.688-0.063 0.125-0.188 0.438-0.25 0.5-0.438 0.875-0.938 2-0.5 2.875 0.25 0.375-0.438 0.25 0.375 0.313l2.75-5.375c-0.063-0.063-0.313-0.313-0.438-0.438-0.438-0.438-0.5-0.313-0.5-1-0.625 0-0.188 0.188-0.688-0.063 0 0.063-0.375-0.188 0.063 0.313zM17.25 23.125c0.125-0.688 0-0.313 0.5-0.938 0.188-0.313 0.25-0.438 0.438-0.75 0.25-0.438 0.625-1.25 1.188-1.063 0.125-0.188 0.188-0.188 0.188-0.375-0.125-0.938 0-0.25-0.375-0.5l-0.188 0.688c-0.5-0.188-2-1.563-2.438-2 0.063 2.063-0.25 4.063-0.063 6.25l0.75-1.313zM20.688 18.688l1.125-0.188 1 1.125c0.313-0.313 0.688-0.375 0.938-0.625-0.625-0.375-0.25-0.063-0.5-0.688 0.125-0.125 0.063-0.063 0.438-0.25 0.813-0.313 1.438-0.5 2.188-0.125 0.813-0.188 2-0.75 2.625-1.313-1.188 0.125-3.875 0-4.625 0.313s-2.625 1.188-3.188 1.75zM8.063 16.938c0.375 1 3.5 2 3.625 2 0.625 0 0.688-0.5 1.125-0.875 0.188-0.25 0.938-0.5 0.688-1.063-0.313-0.5-0.875-0.125-1.563-0.063-1.25 0.063-2.563-0.125-3.875 0zM16.125 7.25l-0.063 0.313c0.125 0.313 0 0.25 0.125 0.438 0.188 0.5-0.125 0.313 0.438 0.563 0.313-0.188 0.313 0.063 0.313-1.313 0.063-0.25 0.063-0.188 0-0.438l-0.375-1.063 0.625-0.25c0-0.063 0.125-0.313 0.125-0.375 0.063 0.063 0.25 0.188 0.25 0.188l0.25-0.063-1.5-2.938c-0.188 0.125-0.313-0.063-0.313 1.063-0.063 1.375 0.188 2.563 0.125 3.875zM22.063 12.438c0.438 0.625 1.063 0.625 1.375 1.125l1.813 1.188c0.25 0.188 0.063 0.063 0.375 0.25 0.313-0.75 1.188-0.375 1.813-0.188-0.375-0.5-4.813-2.625-5.25-2.813-0.125 0.313-0.063 0.313-0.125 0.438zM19.813 19.25c0 0.688 0.063 0.563 0.5 1 0.125 0.125 0.375 0.375 0.438 0.438 0.5-0.5 1.313-0.875 2.063-1.063l-1-1.125-1.125 0.188c-0.438 0.063-0.063-0.125-0.625 0.188-0.375 0.25-0.313 0.125-0.25 0.375zM28.313 15.75l0.938-0.063c-0.063 0-0.125-0.063-0.125-0.063l-0.375-0.375c-0.625-0.125-0.563-0.375-1.313-0.438-0.625-0.188-1.5-0.563-1.813 0.188 1.313 0.813 0.438 0.813 2.688 0.75zM2.563 17.125c-0.188-0.5-0.125-0.188 0.188-0.375-0.688-0.563-0.563-0.125-0.875-0.813 0.313-0.75 1.188-0.75 1.875-1.375 0.313-0.625 0.188-0.188-0.063-0.375-0.5 0.188-0.875 0.438-1.375 0.688-0.875 0.375-0.75 0.25-1.125 1.063 0.5 0.938 0.438 0.75 1.375 1.188zM17.25 23.125l0.875-0.25c0.063-0.063 0.188-0.375 0.25-0.5 0.188-0.25 0.25-0.375 0.438-0.688 0.25-0.375 0.375-0.875 0.563-1.313-0.563-0.188-0.938 0.625-1.188 1.063-0.188 0.313-0.25 0.438-0.438 0.75-0.5 0.625-0.375 0.25-0.5 0.938zM19.625 6.813c0.313 0.875 0.688 1.5 1.063 2.313 0.375 0.75 0.688 1.813 1.5 2.125-0.25-0.438-0.313-0.313-0.563-0.688-0.063-0.063-0.125-0.125-0.188-0.313-0.188-0.75-0.063-0.188 0.063-0.438l-1.688-3.438c-0.25 0.188-0.25-0.375-0.188 0.438zM3.688 14.188c0.25 0.188 0.375-0.25 0.063 0.375 1-0.313 1.938-1 2.813-1.5 0.313-0.313 0.25-0.188 0.5-0.375 0.188-0.125 0.188-0.125 0.313-0.25l0.188-0.25c-0.938 0.188-1.313 0.563-2.063 1-0.75 0.375-1.125 0.563-1.813 1zM23.75 19l2.125-1.063c-0.75-0.375-1.375-0.188-2.188 0.125-0.375 0.188-0.313 0.125-0.438 0.25 0.25 0.625-0.125 0.313 0.5 0.688zM14.25 24.063c0.688 0.25 0.938 1.625 1.625 2.063l-0.313-2.375-0.188 0.375c0-0.063-0.063 0.063-0.125 0.125-0.063-0.875 0.125-0.313-0.375-0.5 0 0-0.063 0.063-0.125 0.063 0 0.063-0.063 0.063-0.063 0.063-0.25 0.188 0 0-0.438 0.188zM13.75 8.813l1-0.375c0.438-0.188 0.188-0.063 0.5-0.313l-0.063-0.188-0.313-1.438-1.125 2.313zM20.063 12.188l0.375-0.313 1.625 0.563c0.063-0.125 0-0.125 0.125-0.438-0.5-0.313-0.625-0.25-0.938-0.688-0.813-0.063-0.25-0.125-0.75 0.375-0.188 0.188-0.313 0.313-0.438 0.5z"
        fill="currentColor"></path>
</svg>