<svg version="1.1" xmlns="http://www.w3.org/2000/svg" viewBox="0 0 32 32">
    <path
        d="M28.313 13.875l-3.25-0.313c-0.25-0.75-0.563-1.563-0.938-2.25l2.063-2.563c0.25-0.25 0.25-0.688 0-0.938l-2-2c-0.188-0.125-0.313-0.188-0.5-0.188s-0.313 0.063-0.438 0.188l-2.563 2.063c-0.75-0.375-1.5-0.688-2.25-0.938l-0.313-3.25c-0.063-0.375-0.375-0.625-0.688-0.625h-2.875c-0.313 0-0.625 0.25-0.688 0.625l-0.313 3.25c-0.75 0.25-1.5 0.563-2.25 0.938l-2.563-2.063c-0.125-0.125-0.25-0.188-0.438-0.188s-0.313 0.063-0.5 0.188l-2 2c-0.25 0.25-0.25 0.688 0 0.938l2.063 2.563c-0.375 0.688-0.688 1.5-0.938 2.25l-3.25 0.313c-0.375 0.063-0.625 0.375-0.625 0.688v2.875c0 0.313 0.25 0.625 0.625 0.688l3.25 0.313c0.25 0.75 0.563 1.5 0.938 2.25l-2.063 2.563c-0.25 0.25-0.25 0.688 0 0.938l2 2c0.188 0.125 0.313 0.188 0.5 0.188s0.313-0.063 0.438-0.188l2.563-2.063c0.75 0.375 1.5 0.688 2.25 0.938l0.313 3.25c0.063 0.375 0.375 0.625 0.688 0.625h2.875c0.313 0 0.625-0.25 0.688-0.625l0.313-3.25c0.75-0.25 1.5-0.563 2.25-0.938l2.563 2.063c0.125 0.125 0.25 0.188 0.438 0.188s0.313-0.063 0.5-0.188l2-2c0.25-0.25 0.25-0.688 0-0.938l-2.063-2.563c0.375-0.75 0.688-1.5 0.938-2.25l3.25-0.313c0.375-0.063 0.625-0.375 0.625-0.688v-2.875c0-0.313-0.25-0.625-0.625-0.688zM16 19.813c-2.125 0-3.813-1.688-3.813-3.813s1.688-3.813 3.813-3.813c2.125 0 3.813 1.688 3.813 3.813s-1.688 3.813-3.813 3.813z"
        fill="currentColor"></path>
</svg>