<svg viewBox="0 0 1024 1024" version="1.1"
    xmlns="http://www.w3.org/2000/svg">
    <path
        d="M380.9792 388.864a38.4 38.4 0 0 0-54.272 54.272l146.2784 146.3296a38.4 38.4 0 0 0 54.272 0l402.2784-402.3296a38.4 38.4 0 1 0-54.272-54.272L500.1216 508.0064 380.9792 388.864z"
        fill="currentColor"></path>
    <path
        d="M172.8 816.4352V198.4512h473.6a38.4 38.4 0 1 0 0-76.8h-512a38.4 38.4 0 0 0-38.4 38.4v694.784c0 21.1968 17.2032 38.4 38.4 38.4h694.8352a38.4 38.4 0 0 0 38.4-38.4V489.1648a38.4 38.4 0 0 0-76.8 0v327.2704H172.8z"
        fill="currentColor"></path>
</svg>