<svg viewBox="0 0 1024 1024" version="1.1" xmlns="http://www.w3.org/2000/svg" ><path d="M154.88 725.354667c38.805333 0.917333 52.416 28.778667 52.181333 43.093333-0.256 14.293333-2.133333 25.386667-17.322666 35.626667 15.104 8.277333 22.954667 20.736 23.594666 37.333333-0.682667 31.189333-18.410667 49.28-53.141333 54.250667-34.88 2.581333-59.434667-9.429333-73.685333-36.053334-3.093333-7.68-0.085333-13.866667 9.002666-18.56 9.664-4.288 17.429333-2.24 23.317334 6.144 5.418667 8.576 10.218667 13.845333 14.378666 15.786667 15.445333 7.168 31.68 5.610667 41.045334-4.906667 6.186667-7.189333 5.802667-19.413333 1.493333-25.664-5.973333-8.618667-19.669333-12.586667-35.242667-10.837333-21.674667 2.112-19.626667-16.170667-19.605333-16.597333-0.213333-3.52 2.090667-15.637333 19.626667-14.058667 17.514667 1.578667 32.405333-2.368 32.256-20.16-0.938667-11.008-7.893333-16.597333-20.821334-16.789333-10.453333 0.192-18.517333 5.013333-24.192 14.485333-6.378667 11.178667-16.768 11.050667-25.301333 6.592-6.037333-2.368-11.349333-11.306667-6.570667-19.114667 4.416-7.68 20.181333-31.488 58.986667-30.570666zM917.333333 768a21.333333 21.333333 0 0 1 21.333334 21.333333v42.666667a21.333333 21.333333 0 0 1-21.333334 21.333333H320a21.333333 21.333333 0 0 1-21.333333-21.333333v-42.666667a21.333333 21.333333 0 0 1 21.333333-21.333333h597.333333zM158.912 426.944c9.472 0.405333 46.506667 7.210667 50.069333 40.768 2.218667 20.906667-4.48 38.4-20.053333 52.586667l-3.477333 2.986666-50.709334 43.84h62.912c10.197333 0.384 15.424 5.546667 15.68 15.509334-0.512 8.938667-5.333333 13.802667-14.4 14.592l-2.56 0.106666-93.077333-0.085333c-8.064 0.597333-13.44-2.197333-16.213333-8.405333-4.138667-9.301333-0.256-17.130667 4.565333-22.826667 4.821333-5.674667 58.666667-54.058667 67.264-61.824 5.717333-5.184 9.92-10.261333 12.608-15.232 5.013333-15.488 2.133333-25.642667-8.618667-30.464-25.92-6.890667-31.466667 6.272-35.968 19.072-4.970667 13.802667-15.914667 14.122667-23.637333 12.309333-6.528-2.069333-16.810667-7.253333-10.688-22.165333 16.896-45.376 56.832-41.173333 66.304-40.768zM917.333333 469.333333a21.333333 21.333333 0 0 1 21.333334 21.333334v42.666666a21.333333 21.333333 0 0 1-21.333334 21.333334H320a21.333333 21.333333 0 0 1-21.333333-21.333334v-42.666666a21.333333 21.333333 0 0 1 21.333333-21.333334h597.333333zM150.016 128a19.84 19.84 0 0 1 14.933333 5.546667 18.538667 18.538667 0 0 1 5.589334 14.869333l0.021333 0.938667V277.333333a21.354667 21.354667 0 1 1-42.730667 0V189.76c-4.224 2.986667-8.490667 5.866667-12.757333 8.64a19.797333 19.797333 0 0 1-26.325333-4.352 15.850667 15.850667 0 0 1 3.861333-23.125333c11.114667-7.168 18.922667-12.8 23.402667-16.853334 4.266667-4.053333 8.746667-8.362667 13.504-12.949333A21.333333 21.333333 0 0 1 149.205333 128h0.810667zM917.333333 170.666667a21.333333 21.333333 0 0 1 21.333334 21.333333v42.666667a21.333333 21.333333 0 0 1-21.333334 21.333333H320a21.333333 21.333333 0 0 1-21.333333-21.333333V192a21.333333 21.333333 0 0 1 21.333333-21.333333h597.333333z" fill="currentColor"></path></svg>