<svg xmlns="http://www.w3.org/2000/svg" viewBox="0 0 48 48">
    <path fill="currentColor"
        d="M12 24c0-2.949 1.074-5.648 2.845-7.742l-1.413-1.412C11.3 17.303 10 20.5 10 24s1.3 6.697 3.432 9.154l1.413-1.412C13.074 29.648 12 26.949 12 24M36 24c0 2.949-1.074 5.648-2.845 7.742l1.413 1.412C36.7 30.697 38 27.5 38 24s-1.3-6.697-3.432-9.154l-1.413 1.412C34.926 18.352 36 21.051 36 24M16.26 14.846C18.352 13.074 21.051 12 24 12s5.649 1.074 7.74 2.846l1.414-1.414C30.697 11.301 27.5 10 24 10c-3.501 0-6.696 1.301-9.153 3.432L16.26 14.846zM31.74 33.154C29.648 34.926 26.949 36 24 36s-5.649-1.074-7.74-2.846l-1.414 1.414C17.303 36.699 20.5 38 24 38s6.696-1.301 9.153-3.432L31.74 33.154z" />
</svg>